<svg xmlns="http://www.w3.org/2000/svg" viewBox="0 0 900 450" width="100%" height="100%">
  <rect width="900" height="450" fill="#ffffff"/>
  
  <text x="450" y="40" font-family="Arial, sans-serif" font-size="22" font-weight="bold" text-anchor="middle" fill="#333">Arquitetura do Projeto: Data Lakehouse Local</text>

  <rect x="50" y="80" width="200" height="300" rx="10" fill="#f4f6f8" stroke="#d1d5da" stroke-width="2"/>
  <text x="150" y="110" font-family="Arial, sans-serif" font-size="16" font-weight="bold" text-anchor="middle" fill="#586069">1. Desenvolvimento</text>
  
  <rect x="70" y="140" width="160" height="60" rx="5" fill="#ffffff" stroke="#e36209" stroke-width="2"/>
  <text x="150" y="175" font-family="Arial, sans-serif" font-size="14" font-weight="bold" text-anchor="middle" fill="#e36209">Jupyter Lab</text>
  
  <rect x="70" y="220" width="160" height="60" rx="5" fill="#ffffff" stroke="#0052cc" stroke-width="2"/>
  <text x="150" y="245" font-family="Arial, sans-serif" font-size="14" font-weight="bold" text-anchor="middle" fill="#0052cc">Scripts Python</text>
  <text x="150" y="265" font-family="Arial, sans-serif" font-size="12" text-anchor="middle" fill="#666">Gerenciador: UV/Poetry</text>

  <path d="M 250 230 L 310 230" stroke="#28a745" stroke-width="3" fill="none"/>
  <polygon points="310,230 300,225 300,235" fill="#28a745"/>
  <circle cx="280" cy="230" r="12" fill="#28a745"/>
  <text x="280" y="234" font-family="Arial, sans-serif" font-size="12" font-weight="bold" text-anchor="middle" fill="#fff">1</text>

  <rect x="330" y="80" width="240" height="300" rx="10" fill="#f4f6f8" stroke="#d1d5da" stroke-width="2"/>
  <text x="450" y="110" font-family="Arial, sans-serif" font-size="16" font-weight="bold" text-anchor="middle" fill="#586069">2. Processamento</text>

  <rect x="360" y="170" width="180" height="100" rx="5" fill="#ffffff" stroke="#d73a49" stroke-width="2"/>
  <text x="450" y="210" font-family="Arial, sans-serif" font-size="18" font-weight="bold" text-anchor="middle" fill="#d73a49">Apache Spark</text>
  <text x="450" y="235" font-family="Arial, sans-serif" font-size="14" text-anchor="middle" fill="#666">(PySpark API)</text>
  <text x="450" y="255" font-family="Arial, sans-serif" font-size="12" font-style="italic" text-anchor="middle" fill="#666">Motor de Execução Local</text>

  <path d="M 570 190 L 630 150" stroke="#28a745" stroke-width="3" fill="none"/>
  <polygon points="630,150 620,152 625,160" fill="#28a745"/>
  <circle cx="600" cy="170" r="12" fill="#28a745"/>
  <text x="600" y="174" font-family="Arial, sans-serif" font-size="12" font-weight="bold" text-anchor="middle" fill="#fff">2</text>

  <path d="M 570 270 L 630 310" stroke="#28a745" stroke-width="3" fill="none"/>
  <polygon points="630,310 625,300 620,308" fill="#28a745"/>
  <circle cx="600" cy="290" r="12" fill="#28a745"/>
  <text x="600" y="294" font-family="Arial, sans-serif" font-size="12" font-weight="bold" text-anchor="middle" fill="#fff">3</text>

  <rect x="650" y="80" width="200" height="300" rx="10" fill="#f4f6f8" stroke="#d1d5da" stroke-width="2"/>
  <text x="750" y="110" font-family="Arial, sans-serif" font-size="16" font-weight="bold" text-anchor="middle" fill="#586069">3. Data Lakehouse</text>

  <rect x="670" y="140" width="160" height="70" rx="5" fill="#ffffff" stroke="#008a9f" stroke-width="2"/>
  <text x="750" y="170" font-family="Arial, sans-serif" font-size="14" font-weight="bold" text-anchor="middle" fill="#008a9f">Delta Lake</text>
  <text x="750" y="190" font-family="Arial, sans-serif" font-size="12" text-anchor="middle" fill="#666">Operações ACID</text>

  <rect x="670" y="260" width="160" height="70" rx="5" fill="#ffffff" stroke="#17a2b8" stroke-width="2"/>
  <text x="750" y="290" font-family="Arial, sans-serif" font-size="14" font-weight="bold" text-anchor="middle" fill="#17a2b8">Apache Iceberg</text>
  <text x="750" y="310" font-family="Arial, sans-serif" font-size="12" text-anchor="middle" fill="#666">Controle de Metadados</text>

  <rect x="50" y="390" width="800" height="50" rx="10" fill="#e1e4e8" stroke="#d1d5da" stroke-width="2"/>
  <text x="450" y="420" font-family="Arial, sans-serif" font-size="14" font-weight="bold" text-anchor="middle" fill="#24292e">Documentação e Apresentação: MkDocs + GitHub Pages</text>

</svg>
